<?xml version="1.0" encoding="UTF-8"?>
<!DOCTYPE svg PUBLIC "-//W3C//DTD SVG 1.1//EN" "http://www.w3.org/Graphics/SVG/1.1/DTD/svg11.dtd">
<!-- Creator: CorelDRAW X7 -->
<svg xmlns="http://www.w3.org/2000/svg" xml:space="preserve" width="1053px" height="1122px" version="1.1" style="shape-rendering:geometricPrecision; text-rendering:geometricPrecision; image-rendering:optimizeQuality; fill-rule:evenodd; clip-rule:evenodd"
viewBox="0 0 1053 1122"
 xmlns:xlink="http://www.w3.org/1999/xlink">
 <defs>
  <style type="text/css">
   <![CDATA[
    .fil0 {fill:#FEFEFE}
   ]]>
  </style>
 </defs>
 <g id="Layer_x0020_1">
  <metadata id="CorelCorpID_0Corel-Layer"/>
  <g id="_1090124176">
   <g>
    <path class="fil0" d="M623 379c-8,0 -18,5 -17,19l0 339c-1,6 1,56 52,44 32,-7 86,-27 105,-37 4,-3 9,-8 9,-17l0 -44c0,-7 -7,-10 -12,-8l-30 11c-6,2 -12,-2 -12,-8l0 -279c0,-13 -8,-20 -18,-20l-77 0z"/>
    <path class="fil0" d="M292 755c187,67 285,19 280,-180 -3,-134 -68,-196 -195,-196l-85 0c-8,0 -18,6 -17,19l0 330c0,14 4,22 17,27zm97 -305c60,6 79,69 81,128 1,62 -12,150 -88,130 -4,-1 -6,-5 -6,-8 0,-1 0,-2 0,-2l0 -238c0,-6 3,-10 8,-10 2,0 3,0 5,0z"/>
    <path class="fil0" d="M141 379l69 0c14,-1 20,10 20,17l0 299c0,14 -17,21 -27,14 -26,-18 -59,-44 -73,-59 -4,-4 -6,-9 -6,-15l0 -238c-1,-7 5,-18 17,-18z"/>
    <path class="fil0" d="M886 379l-69 0c-14,-1 -20,10 -20,17l0 299c0,14 17,21 27,14 27,-18 60,-44 73,-59 4,-4 7,-9 7,-15l0 -238c0,-7 -5,-18 -18,-18z"/>
    <g>
     <path class="fil0" d="M888 251c-5,-5 -11,-9 -17,-12 -7,-2 -13,-4 -20,-4 -8,0 -14,2 -20,4 -7,3 -13,7 -17,12 -5,4 -9,10 -12,17 -2,6 -4,13 -4,20 0,7 2,14 4,20 3,6 7,12 12,17 4,5 10,8 17,11 6,3 12,4 20,4 7,0 13,-1 20,-4 6,-3 12,-6 17,-11 4,-5 8,-11 11,-17 3,-6 4,-13 4,-20 0,-7 -1,-14 -4,-20 -3,-7 -7,-13 -11,-17z"/>
     <path class="fil0" d="M418 206l-47 -191c-2,-9 -10,-15 -20,-15l-70 0c-11,0 -20,8 -21,19l-30 300c-1,13 11,21 21,21l41 0c10,0 17,-7 19,-15 1,-3 2,-6 2,-10l12 -151c0,-3 2,-5 5,-5 4,-1 5,2 6,3l43 163c3,10 12,15 20,15l24 0 25 0c8,0 17,-5 20,-15l43 -163c1,-1 2,-4 6,-3 2,0 4,2 4,5l13 151c0,4 0,7 1,10 2,8 10,15 20,15l41 0c10,0 22,-8 21,-21l-30 -300c-1,-11 -10,-19 -21,-19l-71 0c-9,0 -17,6 -19,15l-48 191c0,3 -2,4 -5,4 -2,0 -4,-1 -5,-4z"/>
     <path class="fil0" d="M678 340l53 0c11,0 20,-8 20,-21l0 -96c0,-34 28,-63 65,-61 6,0 10,-6 10,-11l0 -52c0,-5 -4,-10 -10,-10 -13,0 -29,3 -40,9 -11,5 -20,14 -27,25 0,0 -1,1 -1,1 -1,2 -3,3 -5,2 -2,0 -4,-2 -4,-5l0 -12c0,-10 -8,-20 -20,-20l-41 0c-12,0 -21,10 -21,21l0 209c0,11 9,21 21,21z"/>
    </g>
   </g>
   <path class="fil0" d="M855 36c0,0 0,0 0,0l8 0c1,0 1,0 1,0l0 -27 5 0c1,0 1,-1 1,-1l0 -7c0,-1 0,-1 -1,-1l-20 0c0,0 0,0 0,1l0 7c0,0 0,1 0,1l6 0 0 27zm40 0c0,0 1,0 1,0l7 0c0,0 0,0 0,0 1,0 1,0 1,0l-3 -35c0,-1 0,-1 0,-1l-9 0c0,0 0,0 0,0 0,2 -1,4 -1,6 -1,2 -1,4 -1,6 -1,1 -1,3 -1,4 0,2 -1,3 -1,4 0,0 0,-1 0,-1 0,-1 0,-1 -1,-2 0,0 0,-1 0,-1 0,-1 0,-1 0,-2l-1 -2 -2 -12c0,0 0,0 -1,0l-8 0c0,0 -1,0 -1,1l-2 35c0,0 0,0 0,0l7 0c1,0 1,0 1,0 0,-2 0,-4 0,-6 0,-2 0,-3 0,-5 0,-1 0,-1 0,-1 0,-1 0,-1 0,-2 0,0 0,-1 0,-1 1,-1 1,-1 1,-2 0,1 0,2 0,2 0,1 0,1 0,1 0,1 0,1 0,1 0,0 1,1 1,1l2 11c0,0 0,1 1,1l5 0c1,0 1,-1 1,-1l3 -11c0,0 0,-1 0,-2 0,-1 0,-1 1,-2 0,0 0,1 0,2 0,0 0,0 0,0 0,1 0,1 0,1 0,1 0,1 0,2l0 11z"/>
   <path class="fil0" d="M232 799c-3,3 -2,6 0,8 80,76 182,124 282,124 99,0 201,-48 281,-124 2,-2 3,-5 1,-8 -2,-2 -5,-2 -7,0 -92,60 -179,75 -275,76 -96,-1 -184,-16 -275,-76 -3,-2 -5,-2 -7,0z"/>
   <g>
    <path class="fil0" d="M1011 1041c-2,-1 -4,-1 -7,-1 -3,0 -5,1 -7,2 -2,1 -3,3 -3,5 0,2 1,3 1,4 1,1 2,2 3,3 3,1 5,2 8,3 3,1 5,1 7,2 1,0 3,1 5,2 2,1 4,2 5,4 3,3 4,7 4,12 0,6 -2,11 -7,14 -4,4 -10,6 -17,6 -10,0 -18,-1 -23,-4l0 -18c0,-4 11,-3 11,0l0 6c0,3 3,5 11,5 7,0 10,-2 10,-8 0,-1 0,-3 -2,-4 -1,-1 -2,-2 -3,-3 -1,0 -3,0 -4,-1 -2,0 -4,-1 -5,-1 -2,-1 -4,-1 -5,-2 -2,-1 -4,-2 -6,-3 -5,-3 -7,-7 -7,-14 0,-6 3,-11 7,-15 5,-3 11,-5 18,-5 7,0 14,1 21,5l0 15c0,3 -12,4 -12,0l0 -4c0,-3 -1,-4 -3,-5z"/>
    <path class="fil0" d="M898 1030c6,0 11,1 15,4 3,3 5,8 5,13 0,4 0,7 -2,10 -2,3 -4,5 -6,7 -2,1 -5,3 -9,4 -5,1 -12,2 -19,2 1,5 2,8 4,11 3,3 7,4 12,4 5,0 11,-2 16,-5 5,-4 9,7 5,10 -2,1 -5,3 -9,4 -4,2 -9,3 -14,3 -10,0 -17,-3 -22,-9 -5,-5 -7,-13 -7,-23 0,-10 2,-18 8,-25 5,-7 13,-10 23,-10zm-6 29c3,-1 6,-2 9,-4 2,-2 3,-4 3,-7 0,-5 -2,-8 -7,-8 -5,0 -9,2 -11,6 -3,4 -4,8 -4,14 4,-1 7,-1 10,-1z"/>
    <path class="fil0" d="M795 1042c-4,0 -5,-10 0,-10l21 0 0 8c3,-3 5,-6 9,-8 4,-1 8,-2 12,-2 6,0 11,2 15,5 3,4 5,9 5,17l0 33 7 0c4,0 4,10 0,10l-30 0c-3,0 -3,-9 0,-9l4 -1c1,0 2,0 3,-1 1,0 1,-1 1,-3l0 -26c0,-5 -1,-8 -2,-10 -2,-3 -4,-4 -8,-4 -4,0 -8,2 -10,4 -2,3 -3,6 -3,9l0 31 7 0c3,0 3,10 0,10l-30 0c-3,0 -4,-9 0,-9l4 -1c1,0 2,0 3,-1 0,0 0,-1 0,-3l0 -35c0,-2 -1,-4 -3,-4l-5 0z"/>
    <path class="fil0" d="M696 1107l0 -61c0,-1 -1,-2 -1,-3 -1,0 -1,-1 -3,-1l-5 0c-3,0 -4,-10 0,-10l22 0 0 8c1,-3 3,-5 7,-7 3,-2 8,-3 12,-3 16,0 23,10 23,32 0,11 -2,20 -7,26 -5,6 -12,9 -20,9 -5,0 -10,-1 -14,-4l0 18 10 0c3,0 4,10 0,10l-32 0c-4,0 -4,-9 0,-9l4 -1c1,0 2,0 3,-1 0,0 1,-1 1,-3zm40 -44c0,-14 -5,-21 -13,-21 -4,0 -7,1 -9,3 -3,2 -4,5 -4,8l0 29c3,2 7,3 12,3 4,0 8,-2 10,-6 3,-4 4,-10 4,-16z"/>
    <path class="fil0" d="M958 1041c-2,-1 -5,-1 -8,-1 -2,0 -5,1 -6,2 -2,1 -3,3 -3,5 0,2 0,3 1,4 1,1 2,2 3,3 2,1 5,2 7,3 3,1 6,1 7,2 1,0 3,1 5,2 3,1 4,2 5,4 3,3 5,7 5,12 0,6 -3,11 -7,14 -5,4 -11,6 -18,6 -10,0 -18,-1 -23,-4l0 -18c0,-4 11,-3 11,0l0 6c0,3 4,5 11,5 7,0 11,-2 11,-8 0,-1 -1,-3 -2,-4 -1,-1 -3,-2 -4,-3 -1,0 -2,0 -4,-1 -2,0 -3,-1 -5,-1 -1,-1 -3,-1 -5,-2 -2,-1 -4,-2 -6,-3 -4,-3 -6,-7 -6,-14 0,-6 2,-11 7,-15 4,-3 10,-5 17,-5 7,0 14,1 21,5l0 15c0,3 -11,4 -11,0l0 -4c0,-3 -1,-4 -3,-5z"/>
    <path class="fil0" d="M626 1107l0 -61c0,-1 0,-2 0,-3 -1,0 -2,-1 -3,-1l-5 0c-4,0 -4,-10 0,-10l21 0 0 8c2,-3 4,-5 8,-7 3,-2 7,-3 12,-3 15,0 23,10 23,32 0,11 -2,20 -7,26 -5,6 -12,9 -21,9 -5,0 -9,-1 -13,-4l0 18 10 0c3,0 3,10 0,10l-32 0c-4,0 -4,-9 0,-9l4 -1c1,0 2,0 2,-1 1,0 1,-1 1,-3zm40 -44c0,-14 -4,-21 -12,-21 -4,0 -7,1 -9,3 -3,2 -4,5 -4,8l0 29c3,2 7,3 12,3 4,0 8,-2 10,-6 2,-4 3,-10 3,-16z"/>
    <path class="fil0" d="M608 1034l0 47c0,1 0,2 1,3 0,0 1,1 2,1l4 0c4,0 3,10 0,10l-20 0 0 -7 0 0c-4,6 -10,9 -17,9 -9,0 -15,-3 -19,-8 -5,-6 -7,-13 -7,-23 0,-11 3,-20 9,-27 5,-6 14,-9 25,-9 7,0 14,1 22,4zm-14 41l0 -33c-3,-1 -6,-1 -10,-1 -6,0 -10,2 -12,7 -3,4 -4,10 -4,18 0,13 4,20 13,20 4,0 7,-1 9,-3 2,-2 4,-5 4,-8z"/>
    <path class="fil0" d="M427 1095c-1,9 -4,16 -8,21 -5,4 -12,6 -22,6 -10,0 -17,-1 -23,-4l0 -18c0,-5 12,-4 12,0l0 6c0,2 1,3 3,4 2,1 5,1 9,1 5,0 9,-1 11,-5 2,-3 4,-7 4,-13l0 -7c-5,5 -10,7 -17,7 -5,0 -9,-1 -12,-3 -3,-1 -6,-4 -8,-6 -3,-6 -5,-13 -5,-21 0,-11 3,-19 9,-25 6,-5 14,-8 24,-8 8,0 16,1 23,4l0 47c0,7 0,12 0,14zm-14 -26l0 -27c-3,-1 -7,-1 -11,-1 -5,0 -9,2 -11,5 -3,4 -5,9 -5,16 0,13 5,20 14,20 3,0 6,-1 9,-4 2,-2 4,-5 4,-9z"/>
    <path class="fil0" d="M298 1042c-4,0 -5,-10 0,-10l21 0 0 8c2,-3 5,-6 9,-8 3,-1 7,-2 11,-2 7,0 12,2 15,5 4,4 5,9 5,17l0 33 8 0c3,0 3,10 0,10l-30 0c-4,0 -4,-9 0,-9l4 -1c1,0 2,0 3,-1 0,0 0,-1 0,-3l0 -26c0,-5 0,-8 -2,-10 -1,-3 -4,-4 -8,-4 -4,0 -7,2 -9,4 -3,3 -4,6 -4,9l0 31 7 0c4,0 3,10 0,10l-30 0c-3,0 -3,-9 0,-9l4 -1c2,0 3,0 3,-1 1,0 1,-1 1,-3l0 -35c0,-2 -1,-4 -3,-4l-5 0z"/>
    <path class="fil0" d="M266 1021c-2,-2 -3,-4 -3,-7 0,-3 1,-5 3,-7 1,-2 4,-2 7,-2 3,0 5,0 7,2 1,2 2,4 2,7 0,3 -1,5 -2,7 -2,1 -4,2 -7,2 -3,0 -6,-1 -7,-2z"/>
    <path class="fil0" d="M282 1032l0 53 7 0c3,0 3,10 0,10l-30 0c-3,0 -4,-9 0,-9l4 -1c2,0 4,-1 4,-4l0 -35c0,-1 -1,-2 -1,-3 -1,0 -1,-1 -3,-1l-4 0c-3,0 -4,-10 0,-10l23 0z"/>
    <path class="fil0" d="M224 1032l26 0c3,0 3,9 0,9l-4 1c-1,0 -3,1 -3,3l-16 50 -20 0 -17 -50c-1,-1 -1,-2 -2,-3 0,0 -1,0 -2,0l-4 -1c-3,0 -3,-9 0,-9l30 0c3,0 3,10 0,10l-8 0 13 42 0 0 13 -42 -6 0c-4,0 -5,-10 0,-10z"/>
    <path class="fil0" d="M132 1081l0 -35c0,-1 0,-2 0,-3 -1,0 -2,-1 -3,-1l-5 0c-5,0 -5,-10 0,-10l21 0 0 9c2,-3 4,-6 7,-8 4,-2 7,-3 11,-3 5,0 9,1 12,3l0 18c0,4 -11,5 -11,0l0 -5c0,-1 -1,-2 -2,-3 -1,0 -2,0 -3,0 -3,0 -6,1 -8,3 -2,3 -4,6 -4,9l0 30 11 0c5,0 5,10 0,10l-33 0c-4,0 -5,-9 0,-9l4 -1c1,0 2,0 3,-1 0,0 0,-1 0,-3z"/>
    <path class="fil0" d="M95 1030c6,0 11,1 15,4 4,3 5,8 5,13 0,4 0,7 -2,10 -2,3 -4,5 -6,7 -2,1 -5,3 -9,4 -5,1 -12,2 -19,2 1,5 2,8 5,11 2,3 6,4 11,4 5,0 11,-2 16,-5 5,-4 9,7 5,10 -2,1 -5,3 -9,4 -4,2 -8,3 -14,3 -10,0 -17,-3 -22,-9 -5,-5 -7,-13 -7,-23 0,-10 2,-18 8,-25 5,-7 13,-10 23,-10zm-6 29c3,-1 6,-2 9,-4 2,-2 4,-4 4,-7 0,-5 -3,-8 -8,-8 -5,0 -8,2 -11,6 -2,4 -4,8 -4,14 4,-1 7,-1 10,-1z"/>
    <path class="fil0" d="M25 1084c10,0 15,-4 15,-12 0,-5 -2,-8 -7,-10 -2,-1 -5,-2 -9,-3 -3,-1 -7,-2 -9,-3 -3,-1 -5,-3 -8,-4 -5,-4 -7,-10 -7,-18 0,-7 3,-13 8,-18 5,-4 12,-6 21,-6 9,0 17,1 24,5l0 19c0,4 -13,4 -13,0l0 -7c0,-1 0,-2 0,-2 -1,-2 -4,-3 -9,-3 -5,0 -9,1 -11,3 -3,2 -4,4 -4,8 0,3 1,5 3,7 1,1 3,3 6,3 3,1 6,2 9,3 3,1 5,2 8,3 2,1 4,3 7,5 5,4 7,9 7,17 0,8 -2,14 -8,19 -6,5 -13,7 -23,7 -9,0 -17,-2 -25,-5l0 -20c0,-6 13,-6 13,0l0 7c0,1 0,2 1,2 0,1 1,1 3,2 2,1 4,1 8,1z"/>
    <path class="fil0" d="M524 1079l0 -23 -39 0 0 28 8 0c3,0 4,11 0,11l-33 0c-3,0 -3,-11 0,-11l5 0c2,0 4,-2 4,-4l0 -63 -8 0c-3,0 -4,-12 0,-12l33 0c3,0 3,11 0,11l-5 0c-1,1 -2,1 -3,2 -1,0 -1,1 -1,3l0 21 39 0 0 -25 -8 0c-3,0 -4,-12 0,-12l33 0c3,0 3,11 0,11l-5 0c-3,1 -4,2 -4,5l0 63 8 0c4,0 4,11 0,11l-33 0c-4,0 -4,-11 0,-11l5 0c1,0 2,-1 3,-1 0,-1 1,-2 1,-4z"/>
    <g>
     <path class="fil0" d="M763 1021c-1,-2 -2,-4 -2,-7 0,-3 1,-5 2,-7 2,-2 5,-2 7,-2 3,0 6,0 7,2 2,2 3,4 3,7 0,3 -1,5 -3,7 -1,1 -4,2 -7,2 -2,0 -5,-1 -7,-2z"/>
     <path class="fil0" d="M779 1032l0 53 8 0c3,0 3,10 0,10l-31 0c-3,0 -3,-9 0,-9l5 -1c2,0 3,-1 3,-4l0 -35c0,-1 0,-2 0,-3 -1,0 -2,-1 -3,-1l-4 0c-4,0 -4,-10 0,-10l22 0z"/>
    </g>
   </g>
   <path class="fil0" d="M1034 1025c0,0 0,0 0,0l3 0c0,0 1,0 1,0l0 -11 2 0c0,0 0,0 0,0l0 -3c0,0 0,0 0,0l-8 0c0,0 0,0 0,0l0 3c0,0 0,0 0,0l2 0 0 11zm16 0c0,0 0,0 0,0l3 0c0,0 0,0 0,0 0,0 0,0 0,0l-1 -14c0,0 0,0 0,0l-3 0c0,0 -1,0 -1,0 0,1 0,1 0,2 0,1 0,2 0,2 -1,1 -1,2 -1,2 0,1 0,1 0,2 0,-1 0,-1 0,-1 0,0 0,0 0,-1 0,0 0,0 0,0 0,0 -1,0 -1,-1l0 -1 -1 -4c0,0 0,0 0,0l-3 0c0,0 0,0 0,0l-1 14c0,0 0,0 0,0l2 0c1,0 1,0 1,0 0,-1 0,-2 0,-2 0,-1 0,-2 0,-3 0,0 0,0 0,0 0,0 0,0 0,0 0,-1 0,-1 0,-1 0,0 0,-1 0,-1 0,1 0,1 0,1 0,0 0,0 0,0 0,1 0,1 0,1 0,0 0,0 0,0l1 4c0,1 0,1 1,1l2 0c0,0 0,0 0,-1l1 -4c0,0 0,0 0,-1 0,0 0,0 0,-1 0,1 0,1 0,1 0,0 0,0 0,1 0,0 0,0 1,0 0,0 0,0 0,0l0 5z"/>
  </g>
 </g>
</svg>
